<svg xmlns="http://www.w3.org/2000/svg" width="640" height="480" viewBox="0 0 640 480" role="img" aria-labelledby="title desc">
  <title id="title">Training systems thumbnail</title>
  <desc id="desc">Abstract training pipeline and compute nodes.</desc>
  <rect width="640" height="480" fill="#f7f8fa"/>
  <g fill="#ffffff" stroke="#415d53" stroke-width="4">
    <rect x="78" y="82" width="128" height="86" rx="8"/>
    <rect x="256" y="82" width="128" height="86" rx="8"/>
    <rect x="434" y="82" width="128" height="86" rx="8"/>
    <rect x="166" y="276" width="128" height="86" rx="8"/>
    <rect x="346" y="276" width="128" height="86" rx="8"/>
  </g>
  <g stroke="#b84f68" stroke-width="6" fill="none">
    <path d="M206 125h50"/>
    <path d="M384 125h50"/>
    <path d="M320 168v70"/>
    <path d="M320 238l-90 38"/>
    <path d="M320 238l90 38"/>
  </g>
  <g fill="#245f73">
    <circle cx="142" cy="125" r="14"/>
    <circle cx="320" cy="125" r="14"/>
    <circle cx="498" cy="125" r="14"/>
    <circle cx="230" cy="319" r="14"/>
    <circle cx="410" cy="319" r="14"/>
  </g>
</svg>
